{"title":"UFC 105 Couture vs Vera [SatRiP-XviD-Mp3-ENG]","uid":5163519,"size":1403017728,"categoryP":"video","categoryS":"tv_shows","magnet":"?xt=urn:btih:32d00cd97099b9d34c9cc3ccc0e6bd47f44f9092&amp;dn=UFC+105+Couture+vs+Vera+%5BSatRiP-XviD-Mp3-ENG%5D&amp;tr=udp%3A%2F%2Ftracker.openbittorrent.com%3A80&amp;tr=udp%3A%2F%2Fopen.demonii.com%3A1337&amp;tr=udp%3A%2F%2Ftracker.coppersurfer.tk%3A6969&amp;tr=udp%3A%2F%2Fexodus.desync.com%3A6969","seeders":1,"leechers":0,"uploader":"maxneb","files":1,"time":1258291006,"description":"General\nComplete name : C:UFC.105.Couture.vs.Vera.DSR.XviD-XWT.avi\nFormat : AVI\nFormat/Info : Audio Video Interleave\nFile size : 1.31 GiB\nDuration : 2h 40mn\nOverall bit rate : 1 163 Kbps\n\nVideo\nFormat : MPEG-4 Visual\nFormat profile : Streaming Video@L1\nFormat settings, BVOP : Yes\nFormat settings, QPel : No\nFormat settings, GMC : No warppoints\nFormat settings, Matrix : Default\nCodec ID : XVID\nCodec ID/Hint : XviD\nDuration : 2h 40mn\nBit rate : 1 023 Kbps\nWidth : 640 pixels\nHeight : 368 pixels\nDisplay aspect ratio : 16/9\nFrame rate : 25.000 fps\nResolution : 24 bits\nColorimetry : 4:2:0\nScan type : Progressive\nBits/(Pixel*Frame) : 0.174\nStream size : 1.15 GiB (88%)\nWriting library : XviD 1.1.2 (UTC 2006-11-01)\n\nAudio\nFormat : MPEG Audio\nFormat version : Version 1\nFormat profile : Layer 3\nCodec ID : 55\nCodec ID/Hint : MP3\nDuration : 2h 40mn\nBit rate mode : Constant\nBit rate : 128 Kbps\nChannel(s) : 2 channels\nSampling rate : 44.1 KHz\nResolution : 16 bits\nStream size : 147 MiB (11%)\nAlignment : Aligned on interleaves\nInterleave, duration : 26 ms (0.65 video frame)\nInterleave, preload duration : 809 ms\n\n\nScreenshots: &lt;a href=&quot;\nhttp://uptiki.com/images/zybb9ieyyl2dbas979ds.png&quot; rel=&quot;nofollow&quot; target=&quot;_NEW&quot;&gt;\nhttp://uptiki.com/images/zybb9ieyyl2dbas979ds.png&lt;/a&gt; &lt;a href=&quot;\nhttp://uptiki.com/images/xnu2qyj307k53mnyry.png&quot; rel=&quot;nofollow&quot; target=&quot;_NEW&quot;&gt;\nhttp://uptiki.com/images/xnu2qyj307k53mnyry.png&lt;/a&gt; &lt;a href=&quot;\nhttp://uptiki.com/images/918ep14hh2hxgr8znqqu.png&quot; rel=&quot;nofollow&quot; target=&quot;_NEW&quot;&gt;\nhttp://uptiki.com/images/918ep14hh2hxgr8znqqu.png&lt;/a&gt; &lt;a href=&quot;\nhttp://uptiki.com/images/1s9ouqmol3l4zvdrd2i.png&quot; rel=&quot;nofollow&quot; target=&quot;_NEW&quot;&gt;\nhttp://uptiki.com/images/1s9ouqmol3l4zvdrd2i.png&lt;/a&gt; &lt;a href=&quot;\nhttp://uptiki.com/images/253cz94vonpyi6i08b7l.png&quot; rel=&quot;nofollow&quot; target=&quot;_NEW&quot;&gt;\nhttp://uptiki.com/images/253cz94vonpyi6i08b7l.png&lt;/a&gt; &lt;a href=&quot;\nhttp://uptiki.com/images/8mujyf36a49xrjb0ex20.png&quot; rel=&quot;nofollow&quot; target=&quot;_NEW&quot;&gt;\nhttp://uptiki.com/images/8mujyf36a49xrjb0ex20.png&lt;/a&gt; &lt;a href=&quot;\nhttp://uptiki.com/images/jgmgywezrcfrcn53sqz.png&quot; rel=&quot;nofollow&quot; target=&quot;_NEW&quot;&gt;\nhttp://uptiki.com/images/jgmgywezrcfrcn53sqz.png&lt;/a&gt; &lt;a href=&quot;\nhttp://uptiki.com/images/haaacywmx8yj5cla7f4.png&quot; rel=&quot;nofollow&quot; target=&quot;_NEW&quot;&gt;\nhttp://uptiki.com/images/haaacywmx8yj5cla7f4.png&lt;/a&gt;\n\n\n\nUFC UFC 105 Couture vs Vera\nData: 14 November 2009\nVenue: Manchester Evening News Arena\nCity: England Manchester, England\n\n\n\n\nMain-Event:\n\n205 lbs. Randy &quot;The Natural&quot; Couture(16-10) vs Brandon &quot;The Truth&quot; Vera(11-3)\n\n\nMain Card:\n\n170 lbs. Dan &quot;The Outlaw&quot; Hardy(22-6-0,1NC) vs Mike &quot;Quick&quot; Swick(14-2)\n185 lbs. Michael &quot;The Count&quot; Bisping(17-2) vs Denis Kang(32-11-1,2NC)\n170 lbs. James &quot;Lightning&quot; Wilks(6-2) vs Matt &quot;The Immortal&quot; Brown(10-7)\n155 lbs. Ross &quot;The Real Deal&quot; Pearson(9-3) vs Aaron Riley(28-11-1)\n\n\nPreliminary Card: (May NOT Be Televised) :\n\n170 lbs. &quot;Relentless&quot; Paul Taylor(10-4-1) vs John &quot;The Hitman&quot; Hathaway(11-0)\n205 lbs. Alexander Gustafsson(8-0) vs Jared Hamman(10-1)\n170 lbs. Nick &quot;Slick&quot; Osipczak(4-0) vs Matt &quot;The Riddler&quot; Riddle(3-0)\n155 lbs. Paul &quot;Tellys&quot; Kelly(10-1) vs Dennis Siver(14-6)\n155 lbs. Andre Winner(9-3) vs Rolando &quot;The Crazy Cuban&quot; Delgado(6-4-1)\n155 lbs. Terry Etim(13-2) vs Shannon Gugerty(12-3)","torrent":{"xt":"urn:btih:32d00cd97099b9d34c9cc3ccc0e6bd47f44f9092","amp;dn":"UFC+105+Couture+vs+Vera+%5BSatRiP-XviD-Mp3-ENG%5D","amp;tr":["udp%3A%2F%2Ftracker.openbittorrent.com%3A80","udp%3A%2F%2Fopen.demonii.com%3A1337","udp%3A%2F%2Ftracker.coppersurfer.tk%3A6969","udp%3A%2F%2Fexodus.desync.com%3A6969"],"infoHash":"32d00cd97099b9d34c9cc3ccc0e6bd47f44f9092","infoHashBuffer":{"type":"Buffer","data":[50,208,12,217,112,153,185,211,76,156,195,204,192,230,189,71,244,79,144,146]},"announce":[],"urlList":[]}}